<svg xmlns="http://www.w3.org/2000/svg" width="256" height="256" viewBox="0 0 100 100"><rect width="100" height="100" rx="20" fill="#cb1ea9"></rect><path fill="#fff" d="M47.72 75.50L47.72 75.50Q54.68 75.50 57.92 72.80Q61.16 70.10 61.16 66.02L61.16 66.02Q61.16 62.30 58.64 60.08Q56.12 57.86 50.96 56.30L50.96 56.30L43.28 53.90Q38.72 52.46 35 50.66Q31.28 48.86 28.64 46.40Q26 43.94 24.56 40.64Q23.12 37.34 23.12 32.78L23.12 32.78Q23.12 23.06 30.44 17.36Q37.76 11.66 50.48 11.66L50.48 11.66Q55.52 11.66 59.78 12.44Q64.04 13.22 67.16 14.60Q70.28 15.98 72.02 18.02Q73.76 20.06 73.76 22.58L73.76 22.58Q73.76 24.98 72.62 26.72Q71.48 28.46 69.80 29.54L69.80 29.54Q66.92 27.50 62.18 26.00Q57.44 24.50 51.80 24.50L51.80 24.50Q45.56 24.50 42.32 26.72Q39.08 28.94 39.08 32.78L39.08 32.78Q39.08 35.90 41.30 37.58Q43.52 39.26 48.32 40.82L48.32 40.82L55.16 42.98Q65.60 46.10 71.36 51.50Q77.12 56.90 77.12 66.14L77.12 66.14Q77.12 71.06 75.20 75.14Q73.28 79.22 69.62 82.16Q65.96 85.10 60.50 86.72Q55.04 88.34 48.08 88.34L48.08 88.34Q42.56 88.34 37.94 87.38Q33.32 86.42 29.96 84.80Q26.60 83.18 24.74 80.96Q22.88 78.74 22.88 76.10L22.88 76.10Q22.88 73.34 24.50 71.36Q26.12 69.38 28.28 68.42L28.28 68.42Q31.28 71.06 36.20 73.28Q41.12 75.50 47.72 75.50Z"></path></svg>